<svg width="16" height="16" viewBox="0 0 16 16" fill="none" xmlns="http://www.w3.org/2000/svg">
<path fill-rule="evenodd" clip-rule="evenodd" d="M11.5364 6.34546C11.7805 6.10144 11.7805 5.70569 11.5364 5.46155C11.2924 5.21753 10.8966 5.21753 10.6525 5.46155L6.90149 9.21265L5.34741 7.65857C5.10339 7.41443 4.70764 7.41443 4.46362 7.65857C4.21948 7.90259 4.21948 8.29834 4.46362 8.54236L6.45959 10.5385C6.70374 10.7825 7.09937 10.7825 7.34351 10.5385L11.5364 6.34546ZM8 16C12.4214 16 16 12.422 16 8C16 3.57861 12.422 0 8 0C3.57861 0 0 3.578 0 8C0 12.4214 3.578 16 8 16Z" fill="#29D0E4"/>
</svg>
