<svg width="38" height="38" viewBox="0 0 38 38" fill="none" xmlns="http://www.w3.org/2000/svg">
<path d="M14.1321 26.974C13.7554 26.974 13.3832 26.8555 13.0648 26.6241C12.5432 26.2451 12.265 25.6354 12.3207 24.993L12.7243 20.3434L9.66482 16.819C9.24213 16.3321 9.10875 15.6753 9.308 15.0621C9.50724 14.4489 10.0012 13.9959 10.6294 13.8504L15.1761 12.7974L17.5827 8.79857C17.9152 8.2461 18.4986 7.91626 19.1434 7.91626C19.7882 7.91626 20.3715 8.2461 20.7041 8.79849L23.1107 12.7974L27.6574 13.8504C28.2856 13.9959 28.7796 14.4489 28.9788 15.0621C29.1781 15.6753 29.0447 16.3321 28.622 16.8191L25.5625 20.3434L25.9661 24.993C26.0218 25.6354 25.7436 26.2451 25.222 26.6241C24.7004 27.0031 24.0346 27.0794 23.4408 26.8277L19.1433 25.0072L14.8459 26.8279C14.6147 26.9258 14.3724 26.974 14.1321 26.974ZM19.1433 9.5467C19.0941 9.5467 19.0257 9.56276 18.9796 9.63931L16.395 13.9341C16.2812 14.1232 16.0955 14.2581 15.8804 14.3079L10.9971 15.4389C10.9102 15.459 10.8738 15.5191 10.8586 15.566C10.8433 15.6129 10.8375 15.6829 10.896 15.7502L14.182 19.5355C14.3267 19.7022 14.3976 19.9205 14.3785 20.1404L13.9451 25.1342C13.9374 25.2231 13.9833 25.2763 14.0232 25.3053C14.0631 25.3343 14.128 25.3614 14.2099 25.3266L18.8254 23.3712C19.0285 23.2851 19.2582 23.2851 19.4613 23.3712L24.0767 25.3265C24.1591 25.3614 24.2237 25.3341 24.2636 25.3051C24.3034 25.2762 24.3493 25.2229 24.3416 25.134L23.9082 20.1403C23.8892 19.9203 23.9601 19.7021 24.1048 19.5354L27.3907 15.7501C27.4492 15.6827 27.4433 15.6127 27.4281 15.5658C27.4129 15.5189 27.3765 15.4589 27.2896 15.4387L22.4063 14.3078C22.1912 14.258 22.0056 14.123 21.8917 13.9339L19.3071 9.63915C19.261 9.56276 19.1926 9.5467 19.1433 9.5467Z" fill="#4E74FF"/>
<path d="M11.697 6.48235L10.8569 5.32617C10.6001 4.97273 10.1052 4.89433 9.75155 5.15109C9.39799 5.40797 9.31959 5.90291 9.57647 6.25647L10.4165 7.41264C10.5714 7.62587 10.8127 7.73895 11.0575 7.73895C11.2188 7.73895 11.3816 7.68979 11.522 7.58772C11.8755 7.33091 11.9539 6.83596 11.697 6.48235Z" fill="#4E74FF"/>
<path d="M6.90344 21.8086C6.76838 21.393 6.32195 21.1655 5.90623 21.3005L4.54702 21.7422C4.1313 21.8773 3.90389 22.3238 4.03895 22.7394C4.14759 23.0739 4.45784 23.2865 4.79142 23.2865C4.87245 23.2865 4.9549 23.2739 5.03617 23.2475L6.39537 22.8058C6.81104 22.6708 7.0385 22.2243 6.90344 21.8086Z" fill="#4E74FF"/>
<path d="M19.0004 30.5951C18.5633 30.5951 18.209 30.9494 18.209 31.3865V32.8157C18.209 33.2527 18.5633 33.6071 19.0004 33.6071C19.4374 33.6071 19.7917 33.2527 19.7917 32.8157V31.3865C19.7917 30.9494 19.4375 30.5951 19.0004 30.5951Z" fill="#4E74FF"/>
<path d="M33.453 21.743L32.0938 21.3014C31.6782 21.1664 31.2316 21.3938 31.0966 21.8095C30.9615 22.2252 31.1889 22.6716 31.6046 22.8067L32.9638 23.2484C33.0451 23.2747 33.1275 23.2873 33.2085 23.2873C33.5422 23.2873 33.8524 23.0746 33.9611 22.7402C34.0961 22.3245 33.8687 21.8781 33.453 21.743Z" fill="#4E74FF"/>
<path d="M28.2451 5.15581C27.8914 4.89894 27.3966 4.97734 27.1397 5.33089L26.2996 6.48707C26.0428 6.84063 26.1211 7.33557 26.4747 7.59245C26.6153 7.69446 26.778 7.74362 26.9392 7.74362C27.184 7.74362 27.4253 7.63047 27.5801 7.41743L28.4201 6.26125C28.677 5.90763 28.5987 5.41269 28.2451 5.15581Z" fill="#4E74FF"/>
</svg>
