<svg width="38" height="38" viewBox="0 0 38 38" fill="none" xmlns="http://www.w3.org/2000/svg">
<path d="M19.0002 29.4877C18.7191 29.4877 18.4615 29.3035 18.3713 29.0371C18.2812 28.7709 18.3724 28.4678 18.596 28.297C18.8108 28.133 19.1094 28.1169 19.3414 28.2547C19.5791 28.3958 19.7061 28.6828 19.651 28.9538C19.5887 29.26 19.3134 29.4877 19.0002 29.4877V29.4877Z" fill="#4E74FF"/>
<path d="M14.918 24.8401C14.6112 24.8401 14.308 24.7435 14.0486 24.555C13.6238 24.2463 13.3971 23.7496 13.4425 23.2264L13.7713 19.4389L11.2791 16.568C10.9348 16.1714 10.8261 15.6364 10.9884 15.1369C11.1507 14.6374 11.5531 14.2683 12.0648 14.1499L15.7685 13.2921L17.7288 10.0348C17.9997 9.58472 18.4749 9.31604 19.0001 9.31604C19.5254 9.31604 20.0005 9.58472 20.2715 10.0347L22.2318 13.2921L25.9355 14.1499C26.4472 14.2684 26.8495 14.6374 27.0118 15.1369C27.1741 15.6364 27.0655 16.1714 26.7212 16.5681L24.229 19.4389L24.5577 23.2264C24.6032 23.7496 24.3765 24.2463 23.9516 24.555C23.5268 24.8638 22.9844 24.9259 22.5007 24.7209L19.0001 23.238L15.4995 24.721C15.3111 24.8008 15.1138 24.8401 14.918 24.8401ZM19.0001 10.6442C18.96 10.6442 18.9043 10.6572 18.8667 10.7196L16.7614 14.218C16.6687 14.3721 16.5174 14.482 16.3422 14.5225L12.3644 15.4438C12.2936 15.4602 12.2639 15.5091 12.2516 15.5473C12.2391 15.5855 12.2344 15.6426 12.282 15.6974L14.9587 18.7808C15.0765 18.9166 15.1343 19.0944 15.1188 19.2736L14.7658 23.3413C14.7594 23.4138 14.7968 23.4572 14.8293 23.4807C14.8618 23.5044 14.9147 23.5264 14.9814 23.4981L18.7411 21.9052C18.9066 21.8351 19.0936 21.8351 19.2591 21.9052L23.0187 23.498C23.0858 23.5264 23.1384 23.5042 23.1709 23.4806C23.2034 23.457 23.2408 23.4137 23.2345 23.3412L22.8814 19.2734C22.866 19.0943 22.9237 18.9165 23.0416 18.7807L25.7182 15.6973C25.7659 15.6424 25.7611 15.5854 25.7487 15.5472C25.7362 15.509 25.7066 15.4601 25.6358 15.4437L21.658 14.5224C21.4828 14.4818 21.3316 14.3719 21.2388 14.2179L19.1335 10.7195C19.096 10.6572 19.0402 10.6442 19.0001 10.6442Z" fill="#4E74FF"/>
<path d="M35.6812 18.7283C35.5827 18.6684 33.2473 17.2711 31.39 18.1182C31.2292 18.1916 31.0787 18.2787 30.938 18.3767C30.9532 18.0918 30.9578 17.8056 30.9518 17.5185C31.0663 17.5243 31.1935 17.5281 31.3306 17.5281C32.27 17.5281 33.6697 17.3492 34.5555 16.4121C35.9576 14.9288 35.3906 12.2668 35.3658 12.1542C35.3072 11.8885 35.0923 11.6852 34.8236 11.6417C34.7098 11.6232 32.0203 11.2067 30.618 12.6901C30.3946 12.9265 30.2211 13.1929 30.0875 13.474C29.9105 13.2743 29.6225 13.1933 29.3573 13.2926C29.0139 13.4213 28.8398 13.804 28.9685 14.1475C30.9635 19.4728 28.2664 25.4254 22.9553 27.4299C22.2701 27.6012 21.7796 27.8333 21.7344 27.8551C21.4892 27.9731 21.3408 28.2289 21.3601 28.5005C21.3682 28.6155 21.5805 31.3288 23.3463 32.3529C23.8825 32.6639 24.4826 32.7732 25.0616 32.7732C26.389 32.7732 27.6041 32.1986 27.6764 32.1638C27.9216 32.0457 28.07 31.7899 28.0507 31.5184C28.0425 31.4034 27.8304 28.6901 26.0646 27.666C25.9541 27.6019 25.8409 27.5464 25.7258 27.4986C25.9976 27.3192 26.2605 27.1293 26.5137 26.9296C26.9948 27.7266 27.937 28.9512 29.2945 29.2095C29.4761 29.2441 29.6569 29.2598 29.8361 29.2598C31.635 29.2596 33.2436 27.6712 33.3177 27.597C33.51 27.4044 33.5653 27.1139 33.4572 26.8641C33.4114 26.7583 32.3125 24.2683 30.3072 23.8868C29.9389 23.8168 29.5729 23.8241 29.2202 23.8833C29.4541 23.5024 29.666 23.1086 29.8547 22.7042C30.4063 22.9643 31.3372 23.3197 32.306 23.3197C32.7534 23.3197 33.2091 23.2438 33.6388 23.0478C35.496 22.2006 35.9716 19.5208 35.9909 19.4072C36.0364 19.1387 35.9137 18.8697 35.6812 18.7283V18.7283ZM31.5832 13.6025C32.1901 12.9603 33.3825 12.8704 34.1372 12.9071C34.2085 13.5809 34.2336 14.8192 33.5903 15.4998C32.9824 16.1429 31.7871 16.232 31.0329 16.195C30.9534 15.4435 30.9754 14.2455 31.5832 13.6025V13.6025ZM26.662 31.1442C25.9489 31.3941 24.7778 31.6478 24.0125 31.204C23.2481 30.7607 22.8868 29.6205 22.7492 28.8779C23.3886 28.6537 24.5878 28.3448 25.3982 28.8148C26.1637 29.2588 26.525 30.4017 26.662 31.1442ZM30.0589 25.1915C30.9283 25.3569 31.6477 26.3156 32.0228 26.9708C31.4986 27.3901 30.6347 27.9318 29.839 27.9318C29.7389 27.9318 29.6397 27.9232 29.5426 27.9047C28.6746 27.7395 27.9559 26.7833 27.5803 26.1282C28.1093 25.705 29.1382 25.0163 30.0589 25.1915V25.1915ZM33.0875 21.8393C32.2834 22.206 31.1446 21.8408 30.4595 21.5233C30.6467 20.8721 31.089 19.7153 31.9412 19.3265C32.7453 18.9597 33.8841 19.325 34.5693 19.6426C34.382 20.2938 33.9397 21.4506 33.0875 21.8393Z" fill="#4E74FF"/>
<path d="M16.2659 27.855C16.2208 27.8333 15.7301 27.6011 15.0448 27.4297C9.73387 25.4252 7.03679 19.4726 9.03182 14.1474C9.16052 13.8039 8.98634 13.4212 8.64302 13.2925C8.37792 13.1932 8.08979 13.2742 7.91282 13.4739C7.77921 13.1928 7.60575 12.9264 7.3823 12.6901C5.98007 11.2067 3.29042 11.6232 3.17666 11.6417C2.90799 11.6852 2.6931 11.8884 2.63446 12.1542C2.60962 12.2668 2.04265 14.9287 3.44475 16.4121C4.33067 17.3493 5.73025 17.5281 6.66963 17.5281C6.80669 17.5281 6.93399 17.5243 7.04847 17.5185C7.04243 17.8056 7.04708 18.0918 7.06222 18.3766C6.9215 18.2786 6.7711 18.1915 6.61026 18.1182C4.75341 17.271 2.41758 18.6684 2.3191 18.7283C2.08654 18.8696 1.96376 19.1387 2.00944 19.4071C2.02877 19.5207 2.50437 22.2004 4.36148 23.0477C4.7914 23.2439 5.24681 23.3197 5.69432 23.3197C6.66299 23.3197 7.59407 22.9642 8.14564 22.7041C8.33443 23.1085 8.54626 23.5023 8.78015 23.8832C8.42753 23.824 8.0615 23.8167 7.69308 23.8868C5.68788 24.2683 4.58899 26.7582 4.5431 26.864C4.43499 27.1138 4.49031 27.4043 4.68262 27.5969C4.75667 27.6712 6.36509 29.2597 8.16423 29.2597C8.34326 29.2597 8.52435 29.2439 8.70584 29.2094C10.0634 28.9512 11.0055 27.7265 11.4867 26.9295C11.7399 27.1292 12.0026 27.3191 12.2746 27.4985C12.1594 27.5463 12.0462 27.6018 11.9357 27.6659C10.1699 28.6899 9.95773 31.4033 9.94956 31.5184C9.93023 31.7898 10.0786 32.0456 10.3238 32.1637C10.3962 32.1985 11.6112 32.7731 12.9386 32.7731C13.5175 32.7731 14.1178 32.6638 14.654 32.3528C16.4198 31.3287 16.632 28.6154 16.6402 28.5004C16.6595 28.2288 16.5111 27.973 16.2659 27.855V27.855ZM4.91265 21.8393C4.10755 21.472 3.63659 20.3697 3.42788 19.6441C4.11319 19.3259 5.25398 18.9592 6.05902 19.3265C6.86413 19.6937 7.33508 20.796 7.5438 21.5216C6.85849 21.8399 5.71769 22.2066 4.91265 21.8393ZM6.96733 16.1949C6.21328 16.2318 5.01771 16.1427 4.40989 15.4997C3.80201 14.8566 3.78016 13.6582 3.85959 12.9073C4.61436 12.8703 5.8092 12.9595 6.41708 13.6024C7.02497 14.2456 7.04681 15.444 6.96733 16.1949ZM8.45761 27.9047C8.36033 27.9232 8.26145 27.9318 8.16117 27.9318C7.36536 27.9317 6.50102 27.3897 5.97734 26.9709C6.35287 26.3152 7.07218 25.3568 7.9413 25.1914C8.81076 25.0261 9.83195 25.6536 10.4216 26.1252C10.046 26.7809 9.32667 27.7392 8.45761 27.9047V27.9047ZM13.9877 31.2039C13.2233 31.6472 12.0543 31.3947 11.3414 31.1453C11.4643 30.479 11.7918 29.2845 12.602 28.8147C13.1799 28.4795 13.9892 28.5422 14.6578 28.7004C14.6734 28.7048 14.689 28.7085 14.7046 28.7117C14.9026 28.7603 15.0871 28.8169 15.2484 28.8733C15.1255 29.5396 14.7979 30.734 13.9877 31.2039V31.2039Z" fill="#4E74FF"/>
<path d="M26.3838 10.8132C26.2136 10.8132 26.0435 10.7482 25.9138 10.6182C25.6547 10.3587 25.6551 9.93817 25.9147 9.67912L26.7874 8.80807C27.047 8.54902 27.4674 8.54935 27.7265 8.80893C27.9856 9.06851 27.9852 9.489 27.7256 9.74805L26.8529 10.6191C26.7232 10.7485 26.5535 10.8132 26.3838 10.8132Z" fill="#4E74FF"/>
<path d="M11.6158 10.8132C11.446 10.8132 11.2764 10.7485 11.1468 10.6191L10.274 9.74807C10.0145 9.48902 10.0141 9.06854 10.2732 8.80896C10.5322 8.54938 10.9527 8.54898 11.2123 8.80809L12.085 9.67914C12.3446 9.93819 12.345 10.3587 12.0859 10.6183C11.9562 10.7481 11.786 10.8132 11.6158 10.8132Z" fill="#4E74FF"/>
<path d="M19 7.75997C18.6333 7.75997 18.3359 7.46267 18.3359 7.09591V5.86401C18.3359 5.49725 18.6333 5.19995 19 5.19995C19.3667 5.19995 19.6641 5.49725 19.6641 5.86401V7.09591C19.6641 7.46267 19.3668 7.75997 19 7.75997Z" fill="#4E74FF"/>
</svg>
